<svg width="16" height="16" viewBox="0 0 16 16" xmlns="http://www.w3.org/2000/svg">
  <!-- Headphones -->
  <path d="M2 8 C2 4 14 4 14 8" stroke="#FA8072" stroke-width="1" fill="none"/>
  <rect x="1" y="7" width="2" height="4" rx="1" fill="#FA8072"/>
  <rect x="13" y="7" width="2" height="4" rx="1" fill="#FA8072"/>
  
  <!-- Pug Face - Base -->
  <circle cx="8" cy="9" r="5" fill="#E0C4A8"/>
  
  <!-- Pug Muzzle -->
  <ellipse cx="8" cy="10" rx="3" ry="2.5" fill="#F2D5BC"/>
  
  <!-- Nose -->
  <ellipse cx="8" cy="9.5" rx="1.5" ry="1" fill="#333333"/>
  
  <!-- Eyes -->
  <circle cx="6" cy="8" r="1.2" fill="black"/>
  <circle cx="10" cy="8" r="1.2" fill="black"/>
  
  <!-- Wrinkles -->
  <path d="M6 7 C7 6 9 6 10 7" stroke="#C4A088" fill="none" stroke-width="0.5"/>
  <path d="M5 9 C6 8.5 7 8.5 8 9" stroke="#C4A088" fill="none" stroke-width="0.5"/>
  <path d="M8 9 C9 8.5 10 8.5 11 9" stroke="#C4A088" fill="none" stroke-width="0.5"/>
</svg>