<svg width="50" height="50" viewBox="0 0 50 50" xmlns="http://www.w3.org/2000/svg">
  <!-- Headphones -->
  <path d="M5 25 C5 12 45 12 45 25" stroke="#FA8072" stroke-width="3" fill="none"/>
  <rect x="3" y="23" width="6" height="12" rx="2" fill="#FA8072"/>
  <rect x="41" y="23" width="6" height="12" rx="2" fill="#FA8072"/>
  
  <!-- Pug Face - Base -->
  <circle cx="25" cy="28" r="15" fill="#E0C4A8"/>
  
  <!-- Pug Muzzle -->
  <ellipse cx="25" cy="31" rx="10" ry="8" fill="#F2D5BC"/>
  
  <!-- Nose -->
  <ellipse cx="25" cy="29" rx="5" ry="3" fill="#333333"/>
  
  <!-- Eyes -->
  <circle cx="19" cy="24" r="3.5" fill="black"/>
  <circle cx="31" cy="24" r="3.5" fill="black"/>
  
  <!-- Wrinkles -->
  <path d="M18 21 C20 19 30 19 32 21" stroke="#C4A088" fill="none"/>
  <path d="M15 28 C18 26 22 26 25 28" stroke="#C4A088" fill="none"/>
  <path d="M25 28 C28 26 32 26 35 28" stroke="#C4A088" fill="none"/>
  
  <!-- Inner Ear Details -->
  <circle cx="13" cy="27" r="2" fill="#C4A088"/>
  <circle cx="37" cy="27" r="2" fill="#C4A088"/>
</svg>
